<svg xmlns="http://www.w3.org/2000/svg" version="1.1" xmlns:xlink="http://www.w3.org/1999/xlink" xmlns:svgjs="http://svgjs.com/svgjs" width="1920" height="1080" preserveAspectRatio="none" viewBox="0 0 1920 1080"><g mask="url(&quot;#SvgjsMask3959&quot;)" fill="none"><rect width="1920" height="1080" x="0" y="0" fill="url(#SvgjsLinearGradient3960)"></rect><use xlink:href="#SvgjsSymbol3967" x="0" y="0"></use><use xlink:href="#SvgjsSymbol3967" x="0" y="720"></use><use xlink:href="#SvgjsSymbol3967" x="720" y="0"></use><use xlink:href="#SvgjsSymbol3967" x="720" y="720"></use><use xlink:href="#SvgjsSymbol3967" x="1440" y="0"></use><use xlink:href="#SvgjsSymbol3967" x="1440" y="720"></use></g><defs><mask id="SvgjsMask3959"><rect width="1920" height="1080" fill="#ffffff"></rect></mask><linearGradient x1="0%" y1="50%" x2="100%" y2="50%" gradientUnits="userSpaceOnUse" id="SvgjsLinearGradient3960"><stop stop-color="rgba(14, 42, 71, 1)" offset="0"></stop><stop stop-color="rgba(255, 255, 255, 0.22)" offset="0"></stop></linearGradient><path d="M-1 0 a1 1 0 1 0 2 0 a1 1 0 1 0 -2 0z" id="SvgjsPath3965"></path><path d="M-3 0 a3 3 0 1 0 6 0 a3 3 0 1 0 -6 0z" id="SvgjsPath3964"></path><path d="M-5 0 a5 5 0 1 0 10 0 a5 5 0 1 0 -10 0z" id="SvgjsPath3962"></path><path d="M2 -2 L-2 2z" id="SvgjsPath3961"></path><path d="M6 -6 L-6 6z" id="SvgjsPath3963"></path><path d="M30 -30 L-30 30z" id="SvgjsPath3966"></path></defs><symbol id="SvgjsSymbol3967"><use xlink:href="#SvgjsPath3961" x="30" y="30" stroke="rgba(238, 156, 7, 1)"></use><use xlink:href="#SvgjsPath3962" x="30" y="90" stroke="rgba(238, 156, 7, 1)"></use><use xlink:href="#SvgjsPath3963" x="30" y="150" stroke="rgba(238, 156, 7, 1)"></use><use xlink:href="#SvgjsPath3964" x="30" y="210" stroke="rgba(234, 217, 9, 1)"></use><use xlink:href="#SvgjsPath3964" x="30" y="270" stroke="rgba(255, 255, 255, 1)"></use><use xlink:href="#SvgjsPath3965" x="30" y="330" stroke="rgba(238, 156, 7, 1)"></use><use xlink:href="#SvgjsPath3965" x="30" y="390" stroke="rgba(234, 217, 9, 1)"></use><use xlink:href="#SvgjsPath3963" x="30" y="450" stroke="rgba(238, 156, 7, 1)"></use><use xlink:href="#SvgjsPath3966" x="30" y="510" stroke="rgba(238, 156, 7, 1)" stroke-width="3"></use><use xlink:href="#SvgjsPath3962" x="30" y="570" stroke="rgba(234, 217, 9, 1)"></use><use xlink:href="#SvgjsPath3964" x="30" y="630" stroke="rgba(234, 217, 9, 1)"></use><use xlink:href="#SvgjsPath3962" x="30" y="690" stroke="rgba(234, 217, 9, 1)"></use><use xlink:href="#SvgjsPath3961" x="90" y="30" stroke="rgba(238, 156, 7, 1)"></use><use xlink:href="#SvgjsPath3963" x="90" y="90" stroke="rgba(238, 156, 7, 1)"></use><use xlink:href="#SvgjsPath3962" x="90" y="150" stroke="rgba(255, 255, 255, 1)"></use><use xlink:href="#SvgjsPath3962" x="90" y="210" stroke="rgba(255, 255, 255, 1)"></use><use xlink:href="#SvgjsPath3966" x="90" y="270" stroke="rgba(238, 156, 7, 1)" stroke-width="3"></use><use xlink:href="#SvgjsPath3962" x="90" y="330" stroke="rgba(255, 255, 255, 1)"></use><use xlink:href="#SvgjsPath3964" x="90" y="390" stroke="rgba(234, 217, 9, 1)"></use><use xlink:href="#SvgjsPath3962" x="90" y="450" stroke="rgba(255, 255, 255, 1)"></use><use xlink:href="#SvgjsPath3965" x="90" y="510" stroke="rgba(255, 255, 255, 1)"></use><use xlink:href="#SvgjsPath3963" x="90" y="570" stroke="rgba(238, 156, 7, 1)"></use><use xlink:href="#SvgjsPath3963" x="90" y="630" stroke="rgba(238, 156, 7, 1)"></use><use xlink:href="#SvgjsPath3965" x="90" y="690" stroke="rgba(255, 255, 255, 1)"></use><use xlink:href="#SvgjsPath3962" x="150" y="30" stroke="rgba(238, 156, 7, 1)"></use><use xlink:href="#SvgjsPath3962" x="150" y="90" stroke="rgba(238, 156, 7, 1)"></use><use xlink:href="#SvgjsPath3964" x="150" y="150" stroke="rgba(238, 156, 7, 1)"></use><use xlink:href="#SvgjsPath3963" x="150" y="210" stroke="rgba(234, 217, 9, 1)"></use><use xlink:href="#SvgjsPath3962" x="150" y="270" stroke="rgba(255, 255, 255, 1)"></use><use xlink:href="#SvgjsPath3961" x="150" y="330" stroke="rgba(238, 156, 7, 1)"></use><use xlink:href="#SvgjsPath3964" x="150" y="390" stroke="rgba(238, 156, 7, 1)"></use><use xlink:href="#SvgjsPath3963" x="150" y="450" stroke="rgba(234, 217, 9, 1)"></use><use xlink:href="#SvgjsPath3961" x="150" y="510" stroke="rgba(238, 156, 7, 1)"></use><use xlink:href="#SvgjsPath3964" x="150" y="570" stroke="rgba(234, 217, 9, 1)"></use><use xlink:href="#SvgjsPath3961" x="150" y="630" stroke="rgba(238, 156, 7, 1)"></use><use xlink:href="#SvgjsPath3965" x="150" y="690" stroke="rgba(255, 255, 255, 1)"></use><use xlink:href="#SvgjsPath3962" x="210" y="30" stroke="rgba(238, 156, 7, 1)"></use><use xlink:href="#SvgjsPath3963" x="210" y="90" stroke="rgba(234, 217, 9, 1)"></use><use xlink:href="#SvgjsPath3964" x="210" y="150" stroke="rgba(238, 156, 7, 1)"></use><use xlink:href="#SvgjsPath3962" x="210" y="210" stroke="rgba(255, 255, 255, 1)"></use><use xlink:href="#SvgjsPath3962" x="210" y="270" stroke="rgba(234, 217, 9, 1)"></use><use xlink:href="#SvgjsPath3963" x="210" y="330" stroke="rgba(255, 255, 255, 1)"></use><use xlink:href="#SvgjsPath3962" x="210" y="390" stroke="rgba(238, 156, 7, 1)"></use><use xlink:href="#SvgjsPath3963" x="210" y="450" stroke="rgba(238, 156, 7, 1)"></use><use xlink:href="#SvgjsPath3962" x="210" y="510" stroke="rgba(255, 255, 255, 1)"></use><use xlink:href="#SvgjsPath3964" x="210" y="570" stroke="rgba(238, 156, 7, 1)"></use><use xlink:href="#SvgjsPath3962" x="210" y="630" stroke="rgba(238, 156, 7, 1)"></use><use xlink:href="#SvgjsPath3963" x="210" y="690" stroke="rgba(255, 255, 255, 1)"></use><use xlink:href="#SvgjsPath3962" x="270" y="30" stroke="rgba(255, 255, 255, 1)"></use><use xlink:href="#SvgjsPath3963" x="270" y="90" stroke="rgba(234, 217, 9, 1)"></use><use xlink:href="#SvgjsPath3964" x="270" y="150" stroke="rgba(234, 217, 9, 1)"></use><use xlink:href="#SvgjsPath3961" x="270" y="210" stroke="rgba(255, 255, 255, 1)"></use><use xlink:href="#SvgjsPath3965" x="270" y="270" stroke="rgba(238, 156, 7, 1)"></use><use xlink:href="#SvgjsPath3963" x="270" y="330" stroke="rgba(234, 217, 9, 1)"></use><use xlink:href="#SvgjsPath3964" x="270" y="390" stroke="rgba(234, 217, 9, 1)"></use><use xlink:href="#SvgjsPath3962" x="270" y="450" stroke="rgba(238, 156, 7, 1)"></use><use xlink:href="#SvgjsPath3963" x="270" y="510" stroke="rgba(255, 255, 255, 1)"></use><use xlink:href="#SvgjsPath3961" x="270" y="570" stroke="rgba(255, 255, 255, 1)"></use><use xlink:href="#SvgjsPath3962" x="270" y="630" stroke="rgba(238, 156, 7, 1)"></use><use xlink:href="#SvgjsPath3962" x="270" y="690" stroke="rgba(255, 255, 255, 1)"></use><use xlink:href="#SvgjsPath3962" x="330" y="30" stroke="rgba(238, 156, 7, 1)"></use><use xlink:href="#SvgjsPath3962" x="330" y="90" stroke="rgba(238, 156, 7, 1)"></use><use xlink:href="#SvgjsPath3962" x="330" y="150" stroke="rgba(234, 217, 9, 1)"></use><use xlink:href="#SvgjsPath3962" x="330" y="210" stroke="rgba(255, 255, 255, 1)"></use><use xlink:href="#SvgjsPath3962" x="330" y="270" stroke="rgba(255, 255, 255, 1)"></use><use xlink:href="#SvgjsPath3962" x="330" y="330" stroke="rgba(234, 217, 9, 1)"></use><use xlink:href="#SvgjsPath3964" x="330" y="390" stroke="rgba(238, 156, 7, 1)"></use><use xlink:href="#SvgjsPath3962" x="330" y="450" stroke="rgba(238, 156, 7, 1)"></use><use xlink:href="#SvgjsPath3963" x="330" y="510" stroke="rgba(238, 156, 7, 1)"></use><use xlink:href="#SvgjsPath3962" x="330" y="570" stroke="rgba(255, 255, 255, 1)"></use><use xlink:href="#SvgjsPath3962" x="330" y="630" stroke="rgba(238, 156, 7, 1)"></use><use xlink:href="#SvgjsPath3963" x="330" y="690" stroke="rgba(255, 255, 255, 1)"></use><use xlink:href="#SvgjsPath3963" x="390" y="30" stroke="rgba(234, 217, 9, 1)"></use><use xlink:href="#SvgjsPath3962" x="390" y="90" stroke="rgba(255, 255, 255, 1)"></use><use xlink:href="#SvgjsPath3962" x="390" y="150" stroke="rgba(238, 156, 7, 1)"></use><use xlink:href="#SvgjsPath3963" x="390" y="210" stroke="rgba(255, 255, 255, 1)"></use><use xlink:href="#SvgjsPath3962" x="390" y="270" stroke="rgba(234, 217, 9, 1)"></use><use xlink:href="#SvgjsPath3962" x="390" y="330" stroke="rgba(234, 217, 9, 1)"></use><use xlink:href="#SvgjsPath3963" x="390" y="390" stroke="rgba(255, 255, 255, 1)"></use><use xlink:href="#SvgjsPath3965" x="390" y="450" stroke="rgba(234, 217, 9, 1)"></use><use xlink:href="#SvgjsPath3963" x="390" y="510" stroke="rgba(238, 156, 7, 1)"></use><use xlink:href="#SvgjsPath3962" x="390" y="570" stroke="rgba(238, 156, 7, 1)"></use><use xlink:href="#SvgjsPath3966" x="390" y="630" stroke="rgba(255, 255, 255, 1)" stroke-width="3"></use><use xlink:href="#SvgjsPath3965" x="390" y="690" stroke="rgba(234, 217, 9, 1)"></use><use xlink:href="#SvgjsPath3966" x="450" y="30" stroke="rgba(238, 156, 7, 1)" stroke-width="3"></use><use xlink:href="#SvgjsPath3963" x="450" y="90" stroke="rgba(238, 156, 7, 1)"></use><use xlink:href="#SvgjsPath3963" x="450" y="150" stroke="rgba(255, 255, 255, 1)"></use><use xlink:href="#SvgjsPath3964" x="450" y="210" stroke="rgba(234, 217, 9, 1)"></use><use xlink:href="#SvgjsPath3963" x="450" y="270" stroke="rgba(234, 217, 9, 1)"></use><use xlink:href="#SvgjsPath3961" x="450" y="330" stroke="rgba(238, 156, 7, 1)"></use><use xlink:href="#SvgjsPath3963" x="450" y="390" stroke="rgba(234, 217, 9, 1)"></use><use xlink:href="#SvgjsPath3965" x="450" y="450" stroke="rgba(234, 217, 9, 1)"></use><use xlink:href="#SvgjsPath3963" x="450" y="510" stroke="rgba(238, 156, 7, 1)"></use><use xlink:href="#SvgjsPath3962" x="450" y="570" stroke="rgba(238, 156, 7, 1)"></use><use xlink:href="#SvgjsPath3961" x="450" y="630" stroke="rgba(234, 217, 9, 1)"></use><use xlink:href="#SvgjsPath3961" x="450" y="690" stroke="rgba(238, 156, 7, 1)"></use><use xlink:href="#SvgjsPath3962" x="510" y="30" stroke="rgba(255, 255, 255, 1)"></use><use xlink:href="#SvgjsPath3961" x="510" y="90" stroke="rgba(234, 217, 9, 1)"></use><use xlink:href="#SvgjsPath3961" x="510" y="150" stroke="rgba(255, 255, 255, 1)"></use><use xlink:href="#SvgjsPath3965" x="510" y="210" stroke="rgba(255, 255, 255, 1)"></use><use xlink:href="#SvgjsPath3963" x="510" y="270" stroke="rgba(238, 156, 7, 1)"></use><use xlink:href="#SvgjsPath3963" x="510" y="330" stroke="rgba(238, 156, 7, 1)"></use><use xlink:href="#SvgjsPath3963" x="510" y="390" stroke="rgba(234, 217, 9, 1)"></use><use xlink:href="#SvgjsPath3962" x="510" y="450" stroke="rgba(238, 156, 7, 1)"></use><use xlink:href="#SvgjsPath3962" x="510" y="510" stroke="rgba(234, 217, 9, 1)"></use><use xlink:href="#SvgjsPath3964" x="510" y="570" stroke="rgba(238, 156, 7, 1)"></use><use xlink:href="#SvgjsPath3963" x="510" y="630" stroke="rgba(255, 255, 255, 1)"></use><use xlink:href="#SvgjsPath3962" x="510" y="690" stroke="rgba(238, 156, 7, 1)"></use><use xlink:href="#SvgjsPath3962" x="570" y="30" stroke="rgba(234, 217, 9, 1)"></use><use xlink:href="#SvgjsPath3962" x="570" y="90" stroke="rgba(255, 255, 255, 1)"></use><use xlink:href="#SvgjsPath3963" x="570" y="150" stroke="rgba(238, 156, 7, 1)"></use><use xlink:href="#SvgjsPath3964" x="570" y="210" stroke="rgba(255, 255, 255, 1)"></use><use xlink:href="#SvgjsPath3965" x="570" y="270" stroke="rgba(234, 217, 9, 1)"></use><use xlink:href="#SvgjsPath3964" x="570" y="330" stroke="rgba(255, 255, 255, 1)"></use><use xlink:href="#SvgjsPath3962" x="570" y="390" stroke="rgba(255, 255, 255, 1)"></use><use xlink:href="#SvgjsPath3964" x="570" y="450" stroke="rgba(238, 156, 7, 1)"></use><use xlink:href="#SvgjsPath3962" x="570" y="510" stroke="rgba(234, 217, 9, 1)"></use><use xlink:href="#SvgjsPath3965" x="570" y="570" stroke="rgba(234, 217, 9, 1)"></use><use xlink:href="#SvgjsPath3965" x="570" y="630" stroke="rgba(255, 255, 255, 1)"></use><use xlink:href="#SvgjsPath3963" x="570" y="690" stroke="rgba(234, 217, 9, 1)"></use><use xlink:href="#SvgjsPath3964" x="630" y="30" stroke="rgba(238, 156, 7, 1)"></use><use xlink:href="#SvgjsPath3965" x="630" y="90" stroke="rgba(238, 156, 7, 1)"></use><use xlink:href="#SvgjsPath3961" x="630" y="150" stroke="rgba(238, 156, 7, 1)"></use><use xlink:href="#SvgjsPath3963" x="630" y="210" stroke="rgba(255, 255, 255, 1)"></use><use xlink:href="#SvgjsPath3966" x="630" y="270" stroke="rgba(255, 255, 255, 1)" stroke-width="3"></use><use xlink:href="#SvgjsPath3965" x="630" y="330" stroke="rgba(255, 255, 255, 1)"></use><use xlink:href="#SvgjsPath3963" x="630" y="390" stroke="rgba(238, 156, 7, 1)"></use><use xlink:href="#SvgjsPath3962" x="630" y="450" stroke="rgba(238, 156, 7, 1)"></use><use xlink:href="#SvgjsPath3963" x="630" y="510" stroke="rgba(238, 156, 7, 1)"></use><use xlink:href="#SvgjsPath3962" x="630" y="570" stroke="rgba(238, 156, 7, 1)"></use><use xlink:href="#SvgjsPath3964" x="630" y="630" stroke="rgba(234, 217, 9, 1)"></use><use xlink:href="#SvgjsPath3964" x="630" y="690" stroke="rgba(234, 217, 9, 1)"></use><use xlink:href="#SvgjsPath3961" x="690" y="30" stroke="rgba(234, 217, 9, 1)"></use><use xlink:href="#SvgjsPath3965" x="690" y="90" stroke="rgba(255, 255, 255, 1)"></use><use xlink:href="#SvgjsPath3965" x="690" y="150" stroke="rgba(234, 217, 9, 1)"></use><use xlink:href="#SvgjsPath3963" x="690" y="210" stroke="rgba(234, 217, 9, 1)"></use><use xlink:href="#SvgjsPath3963" x="690" y="270" stroke="rgba(234, 217, 9, 1)"></use><use xlink:href="#SvgjsPath3965" x="690" y="330" stroke="rgba(238, 156, 7, 1)"></use><use xlink:href="#SvgjsPath3963" x="690" y="390" stroke="rgba(238, 156, 7, 1)"></use><use xlink:href="#SvgjsPath3962" x="690" y="450" stroke="rgba(238, 156, 7, 1)"></use><use xlink:href="#SvgjsPath3966" x="690" y="510" stroke="rgba(234, 217, 9, 1)" stroke-width="3"></use><use xlink:href="#SvgjsPath3962" x="690" y="570" stroke="rgba(238, 156, 7, 1)"></use><use xlink:href="#SvgjsPath3962" x="690" y="630" stroke="rgba(234, 217, 9, 1)"></use><use xlink:href="#SvgjsPath3961" x="690" y="690" stroke="rgba(234, 217, 9, 1)"></use></symbol></svg>